<svg width="100" height="100" viewBox="0 0 100 100" fill="none" xmlns="http://www.w3.org/2000/svg">
<g id="Python" clip-path="url(#clip0_170_3487)">
<path id="Vector" d="M49.52 0.390625C24.1949 0.390627 25.7764 11.3731 25.7764 11.3731L25.8046 22.7509H49.9718V26.167H16.2055C16.2055 26.167 0 24.3292 0 49.8824C-1.80625e-06 75.4357 14.1446 74.5295 14.1446 74.5295H22.5861V62.6718C22.5861 62.6718 22.1311 48.5273 36.5048 48.5273H60.4743C60.4743 48.5273 73.9413 48.745 73.9413 35.512V13.6317C73.9413 13.6317 75.9859 0.390625 49.52 0.390625ZM36.1942 8.04167C38.5987 8.04167 40.5421 9.98504 40.5421 12.3895C40.5421 14.7939 38.5987 16.7373 36.1942 16.7373C33.7898 16.7373 31.8464 14.7939 31.8464 12.3895C31.8464 9.98504 33.7898 8.04167 36.1942 8.04167Z" fill="url(#paint0_linear_170_3487)"/>
<path id="Vector_2" d="M50.2391 99.6302C75.5642 99.6302 73.9827 88.6477 73.9827 88.6477L73.9545 77.2699H49.7874V73.8538H83.5536C83.5536 73.8538 99.7591 75.6916 99.7591 50.1384C99.7592 24.5851 85.6146 25.4913 85.6146 25.4913H77.173V37.349C77.173 37.349 77.6281 51.4935 63.2543 51.4935H39.2848C39.2848 51.4935 25.8179 51.2758 25.8179 64.5088V86.3891C25.8179 86.3891 23.7732 99.6302 50.2391 99.6302ZM63.5649 91.9791C61.1605 91.9791 59.2171 90.0358 59.2171 87.6313C59.2171 85.2269 61.1605 83.2835 63.5649 83.2835C65.9694 83.2835 67.9127 85.2269 67.9127 87.6313C67.9128 90.0358 65.9694 91.9791 63.5649 91.9791Z" fill="url(#paint1_linear_170_3487)"/>
</g>
<defs>
<linearGradient id="paint0_linear_170_3487" x1="9.58706" y1="9.31698" x2="59.0242" y2="58.2609" gradientUnits="userSpaceOnUse">
<stop stop-color="#387EB8"/>
<stop offset="1" stop-color="#366994"/>
</linearGradient>
<linearGradient id="paint1_linear_170_3487" x1="39.9314" y1="40.7453" x2="93.0216" y2="90.933" gradientUnits="userSpaceOnUse">
<stop stop-color="#FFE052"/>
<stop offset="1" stop-color="#FFC331"/>
</linearGradient>
<clipPath id="clip0_170_3487">
<rect width="100" height="100" fill="white"/>
</clipPath>
</defs>
</svg>
